<?xml version="1.0" encoding="UTF-8" standalone="no"?>
<!DOCTYPE svg PUBLIC "-//W3C//DTD SVG 1.1//EN" "http://www.w3.org/Graphics/SVG/1.1/DTD/svg11.dtd">
<svg width="100%" height="100%" viewBox="0 0 1969 1492" version="1.1" xmlns="http://www.w3.org/2000/svg" xmlns:xlink="http://www.w3.org/1999/xlink" xml:space="preserve" xmlns:serif="http://www.serif.com/" style="fill-rule:evenodd;clip-rule:evenodd;stroke-linejoin:round;stroke-miterlimit:2;">
    <g transform="matrix(1,0,0,1,-163.096,48.5513)">
        <circle cx="911" cy="147" r="53" style="fill:url(#_Linear1);"/>
        <g transform="matrix(0.201441,0.751788,-0.751788,0.201441,1017.48,-469.637)">
            <circle cx="911" cy="147" r="53" style="fill:url(#_Linear2);"/>
        </g>
        <g transform="matrix(-0.585943,0.0283222,-0.0283222,-0.585943,2526.91,764.293)">
            <circle cx="911" cy="147" r="53" style="fill:url(#_Linear3);"/>
        </g>
        <g transform="matrix(1,0,0,1,345.53,258.052)">
            <circle cx="911" cy="147" r="53" style="fill:url(#_Linear4);"/>
        </g>
        <g transform="matrix(0.201441,0.751788,-0.751788,0.201441,893.079,-157.889)">
            <circle cx="911" cy="147" r="53" style="fill:url(#_Linear5);"/>
        </g>
        <g transform="matrix(-0.585943,0.0283222,-0.0283222,-0.585943,2317.14,622.875)">
            <circle cx="911" cy="147" r="53" style="fill:url(#_Linear6);"/>
        </g>
        <g transform="matrix(1,0,0,1,-82.3174,664.533)">
            <circle cx="911" cy="147" r="53" style="fill:url(#_Linear7);"/>
        </g>
        <g transform="matrix(0.201441,0.751788,-0.751788,0.201441,501.306,-397.658)">
            <circle cx="911" cy="147" r="53" style="fill:url(#_Linear8);"/>
        </g>
        <g transform="matrix(-0.585943,0.0283222,-0.0283222,-0.585943,2556.33,372.583)">
            <circle cx="911" cy="147" r="53" style="fill:url(#_Linear9);"/>
        </g>
        <g transform="matrix(1,0,0,1,43.3229,236.402)">
            <circle cx="911" cy="147" r="53" style="fill:url(#_Linear10);"/>
        </g>
        <g transform="matrix(0.201441,0.751788,-0.751788,0.201441,848.478,-389.446)">
            <circle cx="911" cy="147" r="53" style="fill:url(#_Linear11);"/>
        </g>
        <g transform="matrix(-0.585943,0.0283222,-0.0283222,-0.585943,2494.83,627.001)">
            <circle cx="911" cy="147" r="53" style="fill:url(#_Linear12);"/>
        </g>
        <g transform="matrix(1,0,0,1,790.471,847.141)">
            <circle cx="911" cy="147" r="53" style="fill:url(#_Linear13);"/>
        </g>
        <g transform="matrix(0.201441,0.751788,-0.751788,0.201441,539.839,295.279)">
            <circle cx="911" cy="147" r="53" style="fill:url(#_Linear14);"/>
        </g>
        <g transform="matrix(-0.585943,0.0283222,-0.0283222,-0.585943,2039.75,290.304)">
            <circle cx="911" cy="147" r="53" style="fill:url(#_Linear15);"/>
        </g>
        <g transform="matrix(1,0,0,1,994.894,205.931)">
            <circle cx="911" cy="147" r="53" style="fill:url(#_Linear16);"/>
        </g>
        <g transform="matrix(0.201441,0.751788,-0.751788,0.201441,1063.07,319.795)">
            <circle cx="911" cy="147" r="53" style="fill:url(#_Linear17);"/>
        </g>
        <g transform="matrix(-0.585943,0.0283222,-0.0283222,-0.585943,1938.13,671.806)">
            <circle cx="911" cy="147" r="53" style="fill:url(#_Linear18);"/>
        </g>
        <g transform="matrix(1,0,0,1,435.766,888.979)">
            <circle cx="911" cy="147" r="53" style="fill:url(#_Linear19);"/>
        </g>
        <g transform="matrix(0.201441,0.751788,-0.751788,0.201441,436.933,37.0433)">
            <circle cx="911" cy="147" r="53" style="fill:url(#_Linear20);"/>
        </g>
        <g transform="matrix(-0.585943,0.0283222,-0.0283222,-0.585943,2246.4,255.744)">
            <circle cx="911" cy="147" r="53" style="fill:url(#_Linear21);"/>
        </g>
        <g transform="matrix(1,0,0,1,696.85,239.395)">
            <circle cx="911" cy="147" r="53" style="fill:url(#_Linear22);"/>
        </g>
        <g transform="matrix(0.201441,0.751788,-0.751788,0.201441,977.875,102.47)">
            <circle cx="911" cy="147" r="53" style="fill:url(#_Linear23);"/>
        </g>
        <g transform="matrix(-0.585943,0.0283222,-0.0283222,-0.585943,2111.82,643.757)">
            <circle cx="911" cy="147" r="53" style="fill:url(#_Linear24);"/>
        </g>
        <g transform="matrix(1,0,0,1,333.284,781.893)">
            <circle cx="911" cy="147" r="53" style="fill:url(#_Linear25);"/>
        </g>
        <g transform="matrix(0.201441,0.751788,-0.751788,0.201441,496.795,-61.573)">
            <circle cx="911" cy="147" r="53" style="fill:url(#_Linear26);"/>
        </g>
        <g transform="matrix(-0.585943,0.0283222,-0.0283222,-0.585943,2309.48,315.587)">
            <circle cx="911" cy="147" r="53" style="fill:url(#_Linear27);"/>
        </g>
        <g transform="matrix(1,0,0,1,203.535,526.551)">
            <circle cx="911" cy="147" r="53" style="fill:url(#_Linear28);"/>
        </g>
        <g transform="matrix(0.201441,0.751788,-0.751788,0.201441,662.621,-210.553)">
            <circle cx="911" cy="147" r="53" style="fill:url(#_Linear29);"/>
        </g>
        <g transform="matrix(-0.585943,0.0283222,-0.0283222,-0.585943,2392.74,461.528)">
            <circle cx="911" cy="147" r="53" style="fill:url(#_Linear30);"/>
        </g>
        <g transform="matrix(1,0,0,1,491.438,628.405)">
            <circle cx="911" cy="147" r="53" style="fill:url(#_Linear31);"/>
        </g>
        <g transform="matrix(0.201441,0.751788,-0.751788,0.201441,644.044,26.4064)">
            <circle cx="911" cy="147" r="53" style="fill:url(#_Linear32);"/>
        </g>
        <g transform="matrix(-0.585943,0.0283222,-0.0283222,-0.585943,2221.16,410.002)">
            <circle cx="911" cy="147" r="53" style="fill:url(#_Linear33);"/>
        </g>
        <g transform="matrix(1,0,0,1,830.047,501.359)">
            <circle cx="911" cy="147" r="53" style="fill:url(#_Linear34);"/>
        </g>
        <g transform="matrix(0.201441,0.751788,-0.751788,0.201441,807.766,255.377)">
            <circle cx="911" cy="147" r="53" style="fill:url(#_Linear35);"/>
        </g>
        <g transform="matrix(-0.585943,0.0283222,-0.0283222,-0.585943,2026.35,494.034)">
            <circle cx="911" cy="147" r="53" style="fill:url(#_Linear36);"/>
        </g>
        <g transform="matrix(1,0,0,1,454.328,394.195)">
            <circle cx="911" cy="147" r="53" style="fill:url(#_Linear37);"/>
        </g>
        <g transform="matrix(0.201441,0.751788,-0.751788,0.201441,812.645,-48.6714)">
            <circle cx="911" cy="147" r="53" style="fill:url(#_Linear38);"/>
        </g>
        <g transform="matrix(-0.585943,0.0283222,-0.0283222,-0.585943,2249.54,546.184)">
            <circle cx="911" cy="147" r="53" style="fill:url(#_Linear39);"/>
        </g>
        <g transform="matrix(1,0,0,1,38.6567,987.251)">
            <circle cx="911" cy="147" r="53" style="fill:url(#_Linear40);"/>
        </g>
        <g transform="matrix(0.201441,0.751788,-0.751788,0.201441,283.06,-241.702)">
            <circle cx="911" cy="147" r="53" style="fill:url(#_Linear41);"/>
        </g>
        <g transform="matrix(-0.585943,0.0283222,-0.0283222,-0.585943,2476.3,186.915)">
            <circle cx="911" cy="147" r="53" style="fill:url(#_Linear42);"/>
        </g>
        <g transform="matrix(1,0,0,1,-244.148,1099.32)">
            <circle cx="911" cy="147" r="53" style="fill:url(#_Linear43);"/>
        </g>
        <g transform="matrix(0.201441,0.751788,-0.751788,0.201441,141.842,-431.737)">
            <circle cx="911" cy="147" r="53" style="fill:url(#_Linear44);"/>
        </g>
        <g transform="matrix(-0.585943,0.0283222,-0.0283222,-0.585943,2638.84,113.241)">
            <circle cx="911" cy="147" r="53" style="fill:url(#_Linear45);"/>
        </g>
        <g transform="matrix(1,0,0,1,239.175,1242.77)">
            <circle cx="911" cy="147" r="53" style="fill:url(#_Linear46);"/>
        </g>
        <g transform="matrix(0.201441,0.751788,-0.751788,0.201441,131.354,-39.4825)">
            <circle cx="911" cy="147" r="53" style="fill:url(#_Linear47);"/>
        </g>
        <g transform="matrix(-0.585943,0.0283222,-0.0283222,-0.585943,2351.57,42.8726)">
            <circle cx="911" cy="147" r="53" style="fill:url(#_Linear48);"/>
        </g>
        <g transform="matrix(1,0,0,1,970.888,1135.44)">
            <circle cx="911" cy="147" r="53" style="fill:url(#_Linear49);"/>
        </g>
        <g transform="matrix(0.201441,0.751788,-0.751788,0.201441,359.445,488.988)">
            <circle cx="911" cy="147" r="53" style="fill:url(#_Linear50);"/>
        </g>
        <g transform="matrix(-0.585943,0.0283222,-0.0283222,-0.585943,1925.87,126.49)">
            <circle cx="911" cy="147" r="53" style="fill:url(#_Linear51);"/>
        </g>
        <g transform="matrix(1,0,0,1,564.603,1171.41)">
            <circle cx="911" cy="147" r="53" style="fill:url(#_Linear52);"/>
        </g>
        <g transform="matrix(0.201441,0.751788,-0.751788,0.201441,250.555,190.796)">
            <circle cx="911" cy="147" r="53" style="fill:url(#_Linear53);"/>
        </g>
        <g transform="matrix(-0.585943,0.0283222,-0.0283222,-0.585943,2162.91,93.9018)">
            <circle cx="911" cy="147" r="53" style="fill:url(#_Linear54);"/>
        </g>
        <g transform="matrix(1,0,0,1,706.85,691.995)">
            <circle cx="911" cy="147" r="53" style="fill:url(#_Linear55);"/>
        </g>
        <g transform="matrix(0.201441,0.751788,-0.751788,0.201441,639.631,201.16)">
            <circle cx="911" cy="147" r="53" style="fill:url(#_Linear56);"/>
        </g>
        <g transform="matrix(-0.585943,0.0283222,-0.0283222,-0.585943,2093.14,378.842)">
            <circle cx="911" cy="147" r="53" style="fill:url(#_Linear57);"/>
        </g>
    </g>
    <defs>
        <linearGradient id="_Linear1" x1="0" y1="0" x2="1" y2="0" gradientUnits="userSpaceOnUse" gradientTransform="matrix(1383,1669,-1669,1383,909,146)"><stop offset="0" style="stop-color:rgb(255,0,217);stop-opacity:1"/><stop offset="1" style="stop-color:rgb(0,238,255);stop-opacity:1"/></linearGradient>
        <linearGradient id="_Linear2" x1="0" y1="0" x2="1" y2="0" gradientUnits="userSpaceOnUse" gradientTransform="matrix(1383,1669,-1669,1383,909,146)"><stop offset="0" style="stop-color:rgb(255,0,217);stop-opacity:1"/><stop offset="1" style="stop-color:rgb(0,238,255);stop-opacity:1"/></linearGradient>
        <linearGradient id="_Linear3" x1="0" y1="0" x2="1" y2="0" gradientUnits="userSpaceOnUse" gradientTransform="matrix(1383,1669,-1669,1383,909,146)"><stop offset="0" style="stop-color:rgb(255,0,217);stop-opacity:1"/><stop offset="1" style="stop-color:rgb(0,238,255);stop-opacity:1"/></linearGradient>
        <linearGradient id="_Linear4" x1="0" y1="0" x2="1" y2="0" gradientUnits="userSpaceOnUse" gradientTransform="matrix(1383,1669,-1669,1383,563.47,-112.052)"><stop offset="0" style="stop-color:rgb(255,0,217);stop-opacity:1"/><stop offset="1" style="stop-color:rgb(0,238,255);stop-opacity:1"/></linearGradient>
        <linearGradient id="_Linear5" x1="0" y1="0" x2="1" y2="0" gradientUnits="userSpaceOnUse" gradientTransform="matrix(1383,1669,-1669,1383,563.47,-112.052)"><stop offset="0" style="stop-color:rgb(255,0,217);stop-opacity:1"/><stop offset="1" style="stop-color:rgb(0,238,255);stop-opacity:1"/></linearGradient>
        <linearGradient id="_Linear6" x1="0" y1="0" x2="1" y2="0" gradientUnits="userSpaceOnUse" gradientTransform="matrix(1383,1669,-1669,1383,563.47,-112.052)"><stop offset="0" style="stop-color:rgb(255,0,217);stop-opacity:1"/><stop offset="1" style="stop-color:rgb(0,238,255);stop-opacity:1"/></linearGradient>
        <linearGradient id="_Linear7" x1="0" y1="0" x2="1" y2="0" gradientUnits="userSpaceOnUse" gradientTransform="matrix(1383,1669,-1669,1383,991.317,-518.533)"><stop offset="0" style="stop-color:rgb(255,0,217);stop-opacity:1"/><stop offset="1" style="stop-color:rgb(0,238,255);stop-opacity:1"/></linearGradient>
        <linearGradient id="_Linear8" x1="0" y1="0" x2="1" y2="0" gradientUnits="userSpaceOnUse" gradientTransform="matrix(1383,1669,-1669,1383,991.317,-518.533)"><stop offset="0" style="stop-color:rgb(255,0,217);stop-opacity:1"/><stop offset="1" style="stop-color:rgb(0,238,255);stop-opacity:1"/></linearGradient>
        <linearGradient id="_Linear9" x1="0" y1="0" x2="1" y2="0" gradientUnits="userSpaceOnUse" gradientTransform="matrix(1383,1669,-1669,1383,991.317,-518.533)"><stop offset="0" style="stop-color:rgb(255,0,217);stop-opacity:1"/><stop offset="1" style="stop-color:rgb(0,238,255);stop-opacity:1"/></linearGradient>
        <linearGradient id="_Linear10" x1="0" y1="0" x2="1" y2="0" gradientUnits="userSpaceOnUse" gradientTransform="matrix(1383,1669,-1669,1383,865.677,-90.4022)"><stop offset="0" style="stop-color:rgb(255,0,217);stop-opacity:1"/><stop offset="1" style="stop-color:rgb(0,238,255);stop-opacity:1"/></linearGradient>
        <linearGradient id="_Linear11" x1="0" y1="0" x2="1" y2="0" gradientUnits="userSpaceOnUse" gradientTransform="matrix(1383,1669,-1669,1383,865.677,-90.4022)"><stop offset="0" style="stop-color:rgb(255,0,217);stop-opacity:1"/><stop offset="1" style="stop-color:rgb(0,238,255);stop-opacity:1"/></linearGradient>
        <linearGradient id="_Linear12" x1="0" y1="0" x2="1" y2="0" gradientUnits="userSpaceOnUse" gradientTransform="matrix(1383,1669,-1669,1383,865.677,-90.4022)"><stop offset="0" style="stop-color:rgb(255,0,217);stop-opacity:1"/><stop offset="1" style="stop-color:rgb(0,238,255);stop-opacity:1"/></linearGradient>
        <linearGradient id="_Linear13" x1="0" y1="0" x2="1" y2="0" gradientUnits="userSpaceOnUse" gradientTransform="matrix(1383,1669,-1669,1383,118.529,-701.141)"><stop offset="0" style="stop-color:rgb(255,0,217);stop-opacity:1"/><stop offset="1" style="stop-color:rgb(0,238,255);stop-opacity:1"/></linearGradient>
        <linearGradient id="_Linear14" x1="0" y1="0" x2="1" y2="0" gradientUnits="userSpaceOnUse" gradientTransform="matrix(1383,1669,-1669,1383,118.529,-701.141)"><stop offset="0" style="stop-color:rgb(255,0,217);stop-opacity:1"/><stop offset="1" style="stop-color:rgb(0,238,255);stop-opacity:1"/></linearGradient>
        <linearGradient id="_Linear15" x1="0" y1="0" x2="1" y2="0" gradientUnits="userSpaceOnUse" gradientTransform="matrix(1383,1669,-1669,1383,118.529,-701.141)"><stop offset="0" style="stop-color:rgb(255,0,217);stop-opacity:1"/><stop offset="1" style="stop-color:rgb(0,238,255);stop-opacity:1"/></linearGradient>
        <linearGradient id="_Linear16" x1="0" y1="0" x2="1" y2="0" gradientUnits="userSpaceOnUse" gradientTransform="matrix(1383,1669,-1669,1383,-85.894,-59.9309)"><stop offset="0" style="stop-color:rgb(255,0,217);stop-opacity:1"/><stop offset="1" style="stop-color:rgb(0,238,255);stop-opacity:1"/></linearGradient>
        <linearGradient id="_Linear17" x1="0" y1="0" x2="1" y2="0" gradientUnits="userSpaceOnUse" gradientTransform="matrix(1383,1669,-1669,1383,-85.894,-59.9309)"><stop offset="0" style="stop-color:rgb(255,0,217);stop-opacity:1"/><stop offset="1" style="stop-color:rgb(0,238,255);stop-opacity:1"/></linearGradient>
        <linearGradient id="_Linear18" x1="0" y1="0" x2="1" y2="0" gradientUnits="userSpaceOnUse" gradientTransform="matrix(1383,1669,-1669,1383,-85.894,-59.9309)"><stop offset="0" style="stop-color:rgb(255,0,217);stop-opacity:1"/><stop offset="1" style="stop-color:rgb(0,238,255);stop-opacity:1"/></linearGradient>
        <linearGradient id="_Linear19" x1="0" y1="0" x2="1" y2="0" gradientUnits="userSpaceOnUse" gradientTransform="matrix(1383,1669,-1669,1383,473.234,-742.979)"><stop offset="0" style="stop-color:rgb(255,0,217);stop-opacity:1"/><stop offset="1" style="stop-color:rgb(0,238,255);stop-opacity:1"/></linearGradient>
        <linearGradient id="_Linear20" x1="0" y1="0" x2="1" y2="0" gradientUnits="userSpaceOnUse" gradientTransform="matrix(1383,1669,-1669,1383,473.234,-742.979)"><stop offset="0" style="stop-color:rgb(255,0,217);stop-opacity:1"/><stop offset="1" style="stop-color:rgb(0,238,255);stop-opacity:1"/></linearGradient>
        <linearGradient id="_Linear21" x1="0" y1="0" x2="1" y2="0" gradientUnits="userSpaceOnUse" gradientTransform="matrix(1383,1669,-1669,1383,473.234,-742.979)"><stop offset="0" style="stop-color:rgb(255,0,217);stop-opacity:1"/><stop offset="1" style="stop-color:rgb(0,238,255);stop-opacity:1"/></linearGradient>
        <linearGradient id="_Linear22" x1="0" y1="0" x2="1" y2="0" gradientUnits="userSpaceOnUse" gradientTransform="matrix(1383,1669,-1669,1383,212.15,-93.3951)"><stop offset="0" style="stop-color:rgb(255,0,217);stop-opacity:1"/><stop offset="1" style="stop-color:rgb(0,238,255);stop-opacity:1"/></linearGradient>
        <linearGradient id="_Linear23" x1="0" y1="0" x2="1" y2="0" gradientUnits="userSpaceOnUse" gradientTransform="matrix(1383,1669,-1669,1383,212.15,-93.3951)"><stop offset="0" style="stop-color:rgb(255,0,217);stop-opacity:1"/><stop offset="1" style="stop-color:rgb(0,238,255);stop-opacity:1"/></linearGradient>
        <linearGradient id="_Linear24" x1="0" y1="0" x2="1" y2="0" gradientUnits="userSpaceOnUse" gradientTransform="matrix(1383,1669,-1669,1383,212.15,-93.3951)"><stop offset="0" style="stop-color:rgb(255,0,217);stop-opacity:1"/><stop offset="1" style="stop-color:rgb(0,238,255);stop-opacity:1"/></linearGradient>
        <linearGradient id="_Linear25" x1="0" y1="0" x2="1" y2="0" gradientUnits="userSpaceOnUse" gradientTransform="matrix(1383,1669,-1669,1383,575.716,-635.893)"><stop offset="0" style="stop-color:rgb(255,0,217);stop-opacity:1"/><stop offset="1" style="stop-color:rgb(0,238,255);stop-opacity:1"/></linearGradient>
        <linearGradient id="_Linear26" x1="0" y1="0" x2="1" y2="0" gradientUnits="userSpaceOnUse" gradientTransform="matrix(1383,1669,-1669,1383,575.716,-635.893)"><stop offset="0" style="stop-color:rgb(255,0,217);stop-opacity:1"/><stop offset="1" style="stop-color:rgb(0,238,255);stop-opacity:1"/></linearGradient>
        <linearGradient id="_Linear27" x1="0" y1="0" x2="1" y2="0" gradientUnits="userSpaceOnUse" gradientTransform="matrix(1383,1669,-1669,1383,575.716,-635.893)"><stop offset="0" style="stop-color:rgb(255,0,217);stop-opacity:1"/><stop offset="1" style="stop-color:rgb(0,238,255);stop-opacity:1"/></linearGradient>
        <linearGradient id="_Linear28" x1="0" y1="0" x2="1" y2="0" gradientUnits="userSpaceOnUse" gradientTransform="matrix(1383,1669,-1669,1383,705.465,-380.551)"><stop offset="0" style="stop-color:rgb(255,0,217);stop-opacity:1"/><stop offset="1" style="stop-color:rgb(0,238,255);stop-opacity:1"/></linearGradient>
        <linearGradient id="_Linear29" x1="0" y1="0" x2="1" y2="0" gradientUnits="userSpaceOnUse" gradientTransform="matrix(1383,1669,-1669,1383,705.465,-380.551)"><stop offset="0" style="stop-color:rgb(255,0,217);stop-opacity:1"/><stop offset="1" style="stop-color:rgb(0,238,255);stop-opacity:1"/></linearGradient>
        <linearGradient id="_Linear30" x1="0" y1="0" x2="1" y2="0" gradientUnits="userSpaceOnUse" gradientTransform="matrix(1383,1669,-1669,1383,705.465,-380.551)"><stop offset="0" style="stop-color:rgb(255,0,217);stop-opacity:1"/><stop offset="1" style="stop-color:rgb(0,238,255);stop-opacity:1"/></linearGradient>
        <linearGradient id="_Linear31" x1="0" y1="0" x2="1" y2="0" gradientUnits="userSpaceOnUse" gradientTransform="matrix(1383,1669,-1669,1383,417.562,-482.405)"><stop offset="0" style="stop-color:rgb(255,0,217);stop-opacity:1"/><stop offset="1" style="stop-color:rgb(0,238,255);stop-opacity:1"/></linearGradient>
        <linearGradient id="_Linear32" x1="0" y1="0" x2="1" y2="0" gradientUnits="userSpaceOnUse" gradientTransform="matrix(1383,1669,-1669,1383,417.562,-482.405)"><stop offset="0" style="stop-color:rgb(255,0,217);stop-opacity:1"/><stop offset="1" style="stop-color:rgb(0,238,255);stop-opacity:1"/></linearGradient>
        <linearGradient id="_Linear33" x1="0" y1="0" x2="1" y2="0" gradientUnits="userSpaceOnUse" gradientTransform="matrix(1383,1669,-1669,1383,417.562,-482.405)"><stop offset="0" style="stop-color:rgb(255,0,217);stop-opacity:1"/><stop offset="1" style="stop-color:rgb(0,238,255);stop-opacity:1"/></linearGradient>
        <linearGradient id="_Linear34" x1="0" y1="0" x2="1" y2="0" gradientUnits="userSpaceOnUse" gradientTransform="matrix(1383,1669,-1669,1383,78.9529,-355.359)"><stop offset="0" style="stop-color:rgb(255,0,217);stop-opacity:1"/><stop offset="1" style="stop-color:rgb(0,238,255);stop-opacity:1"/></linearGradient>
        <linearGradient id="_Linear35" x1="0" y1="0" x2="1" y2="0" gradientUnits="userSpaceOnUse" gradientTransform="matrix(1383,1669,-1669,1383,78.9529,-355.359)"><stop offset="0" style="stop-color:rgb(255,0,217);stop-opacity:1"/><stop offset="1" style="stop-color:rgb(0,238,255);stop-opacity:1"/></linearGradient>
        <linearGradient id="_Linear36" x1="0" y1="0" x2="1" y2="0" gradientUnits="userSpaceOnUse" gradientTransform="matrix(1383,1669,-1669,1383,78.9529,-355.359)"><stop offset="0" style="stop-color:rgb(255,0,217);stop-opacity:1"/><stop offset="1" style="stop-color:rgb(0,238,255);stop-opacity:1"/></linearGradient>
        <linearGradient id="_Linear37" x1="0" y1="0" x2="1" y2="0" gradientUnits="userSpaceOnUse" gradientTransform="matrix(1383,1669,-1669,1383,454.672,-248.195)"><stop offset="0" style="stop-color:rgb(255,0,217);stop-opacity:1"/><stop offset="1" style="stop-color:rgb(0,238,255);stop-opacity:1"/></linearGradient>
        <linearGradient id="_Linear38" x1="0" y1="0" x2="1" y2="0" gradientUnits="userSpaceOnUse" gradientTransform="matrix(1383,1669,-1669,1383,454.672,-248.195)"><stop offset="0" style="stop-color:rgb(255,0,217);stop-opacity:1"/><stop offset="1" style="stop-color:rgb(0,238,255);stop-opacity:1"/></linearGradient>
        <linearGradient id="_Linear39" x1="0" y1="0" x2="1" y2="0" gradientUnits="userSpaceOnUse" gradientTransform="matrix(1383,1669,-1669,1383,454.672,-248.195)"><stop offset="0" style="stop-color:rgb(255,0,217);stop-opacity:1"/><stop offset="1" style="stop-color:rgb(0,238,255);stop-opacity:1"/></linearGradient>
        <linearGradient id="_Linear40" x1="0" y1="0" x2="1" y2="0" gradientUnits="userSpaceOnUse" gradientTransform="matrix(1383,1669,-1669,1383,870.343,-841.251)"><stop offset="0" style="stop-color:rgb(255,0,217);stop-opacity:1"/><stop offset="1" style="stop-color:rgb(0,238,255);stop-opacity:1"/></linearGradient>
        <linearGradient id="_Linear41" x1="0" y1="0" x2="1" y2="0" gradientUnits="userSpaceOnUse" gradientTransform="matrix(1383,1669,-1669,1383,870.343,-841.251)"><stop offset="0" style="stop-color:rgb(255,0,217);stop-opacity:1"/><stop offset="1" style="stop-color:rgb(0,238,255);stop-opacity:1"/></linearGradient>
        <linearGradient id="_Linear42" x1="0" y1="0" x2="1" y2="0" gradientUnits="userSpaceOnUse" gradientTransform="matrix(1383,1669,-1669,1383,870.343,-841.251)"><stop offset="0" style="stop-color:rgb(255,0,217);stop-opacity:1"/><stop offset="1" style="stop-color:rgb(0,238,255);stop-opacity:1"/></linearGradient>
        <linearGradient id="_Linear43" x1="0" y1="0" x2="1" y2="0" gradientUnits="userSpaceOnUse" gradientTransform="matrix(1383,1669,-1669,1383,1153.15,-953.317)"><stop offset="0" style="stop-color:rgb(255,0,217);stop-opacity:1"/><stop offset="1" style="stop-color:rgb(0,238,255);stop-opacity:1"/></linearGradient>
        <linearGradient id="_Linear44" x1="0" y1="0" x2="1" y2="0" gradientUnits="userSpaceOnUse" gradientTransform="matrix(1383,1669,-1669,1383,1153.15,-953.317)"><stop offset="0" style="stop-color:rgb(255,0,217);stop-opacity:1"/><stop offset="1" style="stop-color:rgb(0,238,255);stop-opacity:1"/></linearGradient>
        <linearGradient id="_Linear45" x1="0" y1="0" x2="1" y2="0" gradientUnits="userSpaceOnUse" gradientTransform="matrix(1383,1669,-1669,1383,1153.15,-953.317)"><stop offset="0" style="stop-color:rgb(255,0,217);stop-opacity:1"/><stop offset="1" style="stop-color:rgb(0,238,255);stop-opacity:1"/></linearGradient>
        <linearGradient id="_Linear46" x1="0" y1="0" x2="1" y2="0" gradientUnits="userSpaceOnUse" gradientTransform="matrix(1383,1669,-1669,1383,669.825,-1096.77)"><stop offset="0" style="stop-color:rgb(255,0,217);stop-opacity:1"/><stop offset="1" style="stop-color:rgb(0,238,255);stop-opacity:1"/></linearGradient>
        <linearGradient id="_Linear47" x1="0" y1="0" x2="1" y2="0" gradientUnits="userSpaceOnUse" gradientTransform="matrix(1383,1669,-1669,1383,669.825,-1096.77)"><stop offset="0" style="stop-color:rgb(255,0,217);stop-opacity:1"/><stop offset="1" style="stop-color:rgb(0,238,255);stop-opacity:1"/></linearGradient>
        <linearGradient id="_Linear48" x1="0" y1="0" x2="1" y2="0" gradientUnits="userSpaceOnUse" gradientTransform="matrix(1383,1669,-1669,1383,669.825,-1096.77)"><stop offset="0" style="stop-color:rgb(255,0,217);stop-opacity:1"/><stop offset="1" style="stop-color:rgb(0,238,255);stop-opacity:1"/></linearGradient>
        <linearGradient id="_Linear49" x1="0" y1="0" x2="1" y2="0" gradientUnits="userSpaceOnUse" gradientTransform="matrix(1383,1669,-1669,1383,-61.8877,-989.436)"><stop offset="0" style="stop-color:rgb(255,0,217);stop-opacity:1"/><stop offset="1" style="stop-color:rgb(0,238,255);stop-opacity:1"/></linearGradient>
        <linearGradient id="_Linear50" x1="0" y1="0" x2="1" y2="0" gradientUnits="userSpaceOnUse" gradientTransform="matrix(1383,1669,-1669,1383,-61.8877,-989.436)"><stop offset="0" style="stop-color:rgb(255,0,217);stop-opacity:1"/><stop offset="1" style="stop-color:rgb(0,238,255);stop-opacity:1"/></linearGradient>
        <linearGradient id="_Linear51" x1="0" y1="0" x2="1" y2="0" gradientUnits="userSpaceOnUse" gradientTransform="matrix(1383,1669,-1669,1383,-61.8877,-989.436)"><stop offset="0" style="stop-color:rgb(255,0,217);stop-opacity:1"/><stop offset="1" style="stop-color:rgb(0,238,255);stop-opacity:1"/></linearGradient>
        <linearGradient id="_Linear52" x1="0" y1="0" x2="1" y2="0" gradientUnits="userSpaceOnUse" gradientTransform="matrix(1383,1669,-1669,1383,344.397,-1025.41)"><stop offset="0" style="stop-color:rgb(255,0,217);stop-opacity:1"/><stop offset="1" style="stop-color:rgb(0,238,255);stop-opacity:1"/></linearGradient>
        <linearGradient id="_Linear53" x1="0" y1="0" x2="1" y2="0" gradientUnits="userSpaceOnUse" gradientTransform="matrix(1383,1669,-1669,1383,344.397,-1025.41)"><stop offset="0" style="stop-color:rgb(255,0,217);stop-opacity:1"/><stop offset="1" style="stop-color:rgb(0,238,255);stop-opacity:1"/></linearGradient>
        <linearGradient id="_Linear54" x1="0" y1="0" x2="1" y2="0" gradientUnits="userSpaceOnUse" gradientTransform="matrix(1383,1669,-1669,1383,344.397,-1025.41)"><stop offset="0" style="stop-color:rgb(255,0,217);stop-opacity:1"/><stop offset="1" style="stop-color:rgb(0,238,255);stop-opacity:1"/></linearGradient>
        <linearGradient id="_Linear55" x1="0" y1="0" x2="1" y2="0" gradientUnits="userSpaceOnUse" gradientTransform="matrix(1383,1669,-1669,1383,202.15,-545.995)"><stop offset="0" style="stop-color:rgb(255,0,217);stop-opacity:1"/><stop offset="1" style="stop-color:rgb(0,238,255);stop-opacity:1"/></linearGradient>
        <linearGradient id="_Linear56" x1="0" y1="0" x2="1" y2="0" gradientUnits="userSpaceOnUse" gradientTransform="matrix(1383,1669,-1669,1383,202.15,-545.995)"><stop offset="0" style="stop-color:rgb(255,0,217);stop-opacity:1"/><stop offset="1" style="stop-color:rgb(0,238,255);stop-opacity:1"/></linearGradient>
        <linearGradient id="_Linear57" x1="0" y1="0" x2="1" y2="0" gradientUnits="userSpaceOnUse" gradientTransform="matrix(1383,1669,-1669,1383,202.15,-545.995)"><stop offset="0" style="stop-color:rgb(255,0,217);stop-opacity:1"/><stop offset="1" style="stop-color:rgb(0,238,255);stop-opacity:1"/></linearGradient>
    </defs>
</svg>
